<svg width="67" height="75" viewBox="0 0 67 75" fill="none" xmlns="http://www.w3.org/2000/svg">
<path d="M0.976744 24.3953H3.95349V27.3721H0.976744V24.3953ZM3.95349 24.3953H6.93023V27.3721H3.95349V24.3953ZM3.95349 27.3721H6.93023V30.3488H3.95349V27.3721ZM6.93023 21.4186H9.90698V24.3953H6.93023V21.4186ZM6.93023 18.4419H9.90698V21.4186H6.93023V18.4419ZM9.90698 18.4419H12.8837V21.4186H9.90698V18.4419ZM9.90698 21.4186H12.8837V24.3953H9.90698V21.4186ZM0.976744 27.3721H3.95349V30.3488H0.976744V27.3721ZM6.93023 24.3953H9.90698V27.3721H6.93023V24.3953ZM9.90698 24.3953H12.8837V27.3721H9.90698V24.3953ZM9.90698 27.3721H12.8837V30.3488H9.90698V27.3721ZM6.93023 27.3721H9.90698V30.3488H6.93023V27.3721ZM6.93023 15.4651H9.90698V18.4419H6.93023V15.4651ZM6.93023 12.4884H9.90698V15.4651H6.93023V12.4884ZM9.90698 12.4884H12.8837V15.4651H9.90698V12.4884ZM9.90698 15.4651H12.8837V18.4419H9.90698V15.4651ZM12.8837 9.51163H15.8605V12.4884H12.8837V9.51163ZM12.8837 6.53488H15.8605V9.51163H12.8837V6.53488ZM18.8372 0.581398H21.814V3.55814H18.8372V0.581398ZM21.814 0.581398H24.7907V3.55814H21.814V0.581398ZM6.93023 30.3488H9.90698V33.3256H6.93023V30.3488ZM9.90698 30.3488H12.8837V33.3256H9.90698V30.3488ZM9.90698 33.3256H12.8837V36.3023H9.90698V33.3256ZM6.93023 33.3256H9.90698V36.3023H6.93023V33.3256ZM6.93023 36.3023H9.90698V39.2791H6.93023V36.3023ZM9.90698 36.3023H12.8837V39.2791H9.90698V36.3023ZM9.90698 39.2791H12.8837V42.2558H9.90698V39.2791ZM6.93023 39.2791H9.90698V42.2558H6.93023V39.2791ZM6.93023 42.2558H9.90698V45.2326H6.93023V42.2558ZM9.90698 42.2558H12.8837V45.2326H9.90698V42.2558ZM9.90698 45.2326H12.8837V48.2093H9.90698V45.2326ZM6.93023 45.2326H9.90698V48.2093H6.93023V45.2326ZM6.93023 48.2093H9.90698V51.186H6.93023V48.2093ZM9.90698 48.2093H12.8837V51.186H9.90698V48.2093ZM9.90698 51.186H12.8837V54.1628H9.90698V51.186ZM6.93023 51.186H9.90698V54.1628H6.93023V51.186ZM0.976744 30.3488H3.95349V33.3256H0.976744V30.3488ZM3.95349 30.3488H6.93023V33.3256H3.95349V30.3488ZM3.95349 33.3256H6.93023V36.3023H3.95349V33.3256ZM0.976744 33.3256H3.95349V36.3023H0.976744V33.3256ZM0.976744 36.3023H3.95349V39.2791H0.976744V36.3023ZM3.95349 36.3023H6.93023V39.2791H3.95349V36.3023ZM3.95349 39.2791H6.93023V42.2558H3.95349V39.2791ZM0.976744 39.2791H3.95349V42.2558H0.976744V39.2791ZM0.976744 42.2558H3.95349V45.2326H0.976744V42.2558ZM3.95349 42.2558H6.93023V45.2326H3.95349V42.2558ZM3.95349 45.2326H6.93023V48.2093H3.95349V45.2326ZM0.976744 45.2326H3.95349V48.2093H0.976744V45.2326ZM0.976744 48.2093H3.95349V51.186H0.976744V48.2093ZM3.95349 48.2093H6.93023V51.186H3.95349V48.2093ZM3.95349 51.186H6.93023V54.1628H3.95349V51.186ZM0.976744 51.186H3.95349V54.1628H0.976744V51.186ZM18.8372 24.3953H21.814V27.3721H18.8372V24.3953ZM21.814 24.3953H24.7907V27.3721H21.814V24.3953ZM21.814 27.3721H24.7907V30.3488H21.814V27.3721ZM18.8372 27.3721H21.814V30.3488H18.8372V27.3721ZM24.7907 24.3953H27.7674V27.3721H24.7907V24.3953ZM27.7674 27.3721H30.7442V30.3488H27.7674V27.3721ZM24.7907 27.3721H27.7674V30.3488H24.7907V27.3721ZM27.7674 24.3953H30.7442V27.3721H27.7674V24.3953ZM21.814 36.3023H24.7907V39.2791H21.814V36.3023ZM18.8372 36.3023H21.814V39.2791H18.8372V36.3023ZM18.8372 39.2791H21.814V42.2558H18.8372V39.2791ZM21.814 39.2791H24.7907V42.2558H21.814V39.2791ZM27.7674 36.3023H30.7442V39.2791H27.7674V36.3023ZM24.7907 36.3023H27.7674V39.2791H24.7907V36.3023ZM27.7674 39.2791H30.7442V42.2558H27.7674V39.2791ZM24.7907 39.2791H27.7674V42.2558H24.7907V39.2791ZM30.7442 24.3953H33.7209V27.3721H30.7442V24.3953ZM33.7209 24.3953H36.6977V27.3721H33.7209V24.3953ZM33.7209 27.3721H36.6977V30.3488H33.7209V27.3721ZM33.7209 30.3488H36.6977V33.3256H33.7209V30.3488ZM33.7209 33.3256H36.6977V36.3023H33.7209V33.3256ZM33.7209 36.3023H36.6977V39.2791H33.7209V36.3023ZM33.7209 39.2791H36.6977V42.2558H33.7209V39.2791ZM30.7442 39.2791H33.7209V42.2558H30.7442V39.2791ZM30.7442 36.3023H33.7209V39.2791H30.7442V36.3023ZM30.7442 33.3256H33.7209V36.3023H30.7442V33.3256ZM30.7442 30.3488H33.7209V33.3256H30.7442V30.3488ZM30.7442 27.3721H33.7209V30.3488H30.7442V27.3721ZM30.7442 21.4186H33.7209V24.3953H30.7442V21.4186ZM30.7442 18.4419H33.7209V21.4186H30.7442V18.4419ZM33.7209 18.4419H36.6977V21.4186H33.7209V18.4419ZM33.7209 21.4186H36.6977V24.3953H33.7209V21.4186ZM33.7209 15.4651H36.6977V18.4419H33.7209V15.4651ZM33.7209 12.4884H36.6977V15.4651H33.7209V12.4884ZM30.7442 12.4884H33.7209V15.4651H30.7442V12.4884ZM30.7442 15.4651H33.7209V18.4419H30.7442V15.4651ZM30.7442 42.2558H33.7209V45.2326H30.7442V42.2558ZM33.7209 42.2558H36.6977V45.2326H33.7209V42.2558ZM33.7209 45.2326H36.6977V48.2093H33.7209V45.2326ZM30.7442 45.2326H33.7209V48.2093H30.7442V45.2326ZM30.7442 48.2093H33.7209V51.186H30.7442V48.2093ZM33.7209 48.2093H36.6977V51.186H33.7209V48.2093ZM33.7209 51.186H36.6977V54.1628H33.7209V51.186ZM30.7442 51.186H33.7209V54.1628H30.7442V51.186ZM36.6977 9.51163H39.6744V12.4884H36.6977V9.51163ZM36.6977 6.53488H39.6744V9.51163H36.6977V6.53488ZM39.6744 6.53488H42.6512V9.51163H39.6744V6.53488ZM39.6744 9.51163H42.6512V12.4884H39.6744V9.51163ZM36.6977 18.4419H39.6744V21.4186H36.6977V18.4419ZM39.6744 21.4186H42.6512V24.3953H39.6744V21.4186ZM39.6744 24.3953H42.6512V27.3721H39.6744V24.3953ZM36.6977 27.3721H39.6744V30.3488H36.6977V27.3721ZM36.6977 30.3488H39.6744V33.3256H36.6977V30.3488ZM36.6977 33.3256H39.6744V36.3023H36.6977V33.3256ZM36.6977 21.4186H39.6744V24.3953H36.6977V21.4186ZM36.6977 24.3953H39.6744V27.3721H36.6977V24.3953ZM39.6744 27.3721H42.6512V30.3488H39.6744V27.3721ZM39.6744 30.3488H42.6512V33.3256H39.6744V30.3488ZM39.6744 33.3256H42.6512V36.3023H39.6744V33.3256ZM36.6977 36.3023H39.6744V39.2791H36.6977V36.3023ZM36.6977 39.2791H39.6744V42.2558H36.6977V39.2791ZM39.6744 39.2791H42.6512V42.2558H39.6744V39.2791ZM39.6744 36.3023H42.6512V39.2791H39.6744V36.3023ZM39.6744 42.2558H42.6512V45.2326H39.6744V42.2558ZM39.6744 45.2326H42.6512V48.2093H39.6744V45.2326ZM36.6977 45.2326H39.6744V48.2093H36.6977V45.2326ZM36.6977 42.2558H39.6744V45.2326H36.6977V42.2558ZM36.6977 48.2093H39.6744V51.186H36.6977V48.2093ZM39.6744 48.2093H42.6512V51.186H39.6744V48.2093ZM39.6744 51.186H42.6512V54.1628H39.6744V51.186ZM36.6977 51.186H39.6744V54.1628H36.6977V51.186ZM33.7209 54.1628H36.6977V57.1395H33.7209V54.1628ZM30.7442 54.1628H33.7209V57.1395H30.7442V54.1628ZM30.7442 57.1395H33.7209V60.1163H30.7442V57.1395ZM33.7209 57.1395H36.6977V60.1163H33.7209V57.1395ZM27.7674 57.1395H30.7442V60.1163H27.7674V57.1395ZM24.7907 57.1395H27.7674V60.1163H24.7907V57.1395ZM27.7674 54.1628H30.7442V57.1395H27.7674V54.1628ZM9.90698 54.1628H12.8837V57.1395H9.90698V54.1628ZM6.93023 54.1628H9.90698V57.1395H6.93023V54.1628ZM6.93023 57.1395H9.90698V60.1163H6.93023V57.1395ZM9.90698 57.1395H12.8837V60.1163H9.90698V57.1395ZM21.814 3.55814H24.7907V6.53488H21.814V3.55814ZM18.8372 3.55814H21.814V6.53488H18.8372V3.55814ZM15.8605 6.53488H18.8372V9.51163H15.8605V6.53488ZM15.8605 9.51163H18.8372V12.4884H15.8605V9.51163ZM12.8837 57.1395H15.8605V60.1163H12.8837V57.1395ZM6.93023 60.1163H9.90698V63.093H6.93023V60.1163ZM9.90698 60.1163H12.8837V63.093H9.90698V60.1163ZM12.8837 60.1163H15.8605V63.093H12.8837V60.1163ZM15.8605 60.1163H18.8372V63.093H15.8605V60.1163ZM18.8372 63.093H21.814V66.0698H18.8372V63.093ZM15.8605 63.093H18.8372V66.0698H15.8605V63.093ZM12.8837 63.093H15.8605V66.0698H12.8837V63.093ZM9.90698 63.093H12.8837V66.0698H9.90698V63.093ZM18.8372 66.0698H21.814V69.0465H18.8372V66.0698ZM21.814 66.0698H24.7907V69.0465H21.814V66.0698ZM21.814 69.0465H24.7907V72.0233H21.814V69.0465ZM18.8372 69.0465H21.814V72.0233H18.8372V69.0465ZM24.7907 66.0698H27.7674V69.0465H24.7907V66.0698ZM27.7674 66.0698H30.7442V69.0465H27.7674V66.0698ZM27.7674 69.0465H30.7442V72.0233H27.7674V69.0465ZM24.7907 69.0465H27.7674V72.0233H24.7907V69.0465ZM30.7442 66.0698H33.7209V69.0465H30.7442V66.0698ZM33.7209 66.0698H36.6977V69.0465H33.7209V66.0698ZM33.7209 69.0465H36.6977V72.0233H33.7209V69.0465ZM30.7442 69.0465H33.7209V72.0233H30.7442V69.0465ZM36.6977 66.0698H39.6744V69.0465H36.6977V66.0698ZM39.6744 66.0698H42.6512V69.0465H39.6744V66.0698ZM39.6744 69.0465H42.6512V72.0233H39.6744V69.0465ZM36.6977 69.0465H39.6744V72.0233H36.6977V69.0465ZM42.6512 66.0698H45.6279V69.0465H42.6512V66.0698ZM45.6279 66.0698H48.6047V69.0465H45.6279V66.0698ZM45.6279 69.0465H48.6047V72.0233H45.6279V69.0465ZM42.6512 69.0465H45.6279V72.0233H42.6512V69.0465ZM48.6047 66.0698H51.5814V69.0465H48.6047V66.0698ZM51.5814 66.0698H54.5581V69.0465H51.5814V66.0698ZM48.6047 39.2791H51.5814V42.2558H48.6047V39.2791ZM48.6047 36.3023H51.5814V39.2791H48.6047V36.3023ZM51.5814 36.3023H54.5581V39.2791H51.5814V36.3023ZM51.5814 33.3256H54.5581V36.3023H51.5814V33.3256ZM51.5814 39.2791H54.5581V42.2558H51.5814V39.2791ZM48.6047 33.3256H51.5814V36.3023H48.6047V33.3256ZM48.6047 30.3488H51.5814V33.3256H48.6047V30.3488ZM48.6047 27.3721H51.5814V30.3488H48.6047V27.3721ZM48.6047 24.3953H51.5814V27.3721H48.6047V24.3953ZM51.5814 24.3953H54.5581V27.3721H51.5814V24.3953ZM51.5814 27.3721H54.5581V30.3488H51.5814V27.3721ZM51.5814 30.3488H54.5581V33.3256H51.5814V30.3488ZM48.6047 21.4186H51.5814V24.3953H48.6047V21.4186ZM48.6047 18.4419H51.5814V21.4186H48.6047V18.4419ZM51.5814 18.4419H54.5581V21.4186H51.5814V18.4419ZM51.5814 21.4186H54.5581V24.3953H51.5814V21.4186ZM42.6512 3.55814H45.6279V6.53488H42.6512V3.55814ZM42.6512 0.581398H45.6279V3.55814H42.6512V0.581398ZM45.6279 0.581398H48.6047V3.55814H45.6279V0.581398ZM45.6279 3.55814H48.6047V6.53488H45.6279V3.55814ZM51.5814 3.55814H54.5581V6.53488H51.5814V3.55814ZM48.6047 3.55814H51.5814V6.53488H48.6047V3.55814ZM48.6047 0.581398H51.5814V3.55814H48.6047V0.581398ZM51.5814 6.53488H54.5581V9.51163H51.5814V6.53488ZM48.6047 6.53488H51.5814V9.51163H48.6047V6.53488ZM48.6047 9.51163H51.5814V12.4884H48.6047V9.51163ZM51.5814 9.51163H54.5581V12.4884H51.5814V9.51163ZM54.5581 6.53488H57.5349V9.51163H54.5581V6.53488ZM57.5349 6.53488H60.5116V9.51163H57.5349V6.53488ZM57.5349 9.51163H60.5116V12.4884H57.5349V9.51163ZM54.5581 9.51163H57.5349V12.4884H54.5581V9.51163ZM60.5116 3.55814H63.4884V6.53488H60.5116V3.55814ZM63.4884 0.581398H66.4651V3.55814H63.4884V0.581398ZM63.4884 3.55814H66.4651V6.53488H63.4884V3.55814ZM15.8605 3.55814H18.8372V6.53488H15.8605V3.55814ZM18.8372 6.53488H21.814V9.51163H18.8372V6.53488ZM9.90698 9.51163H12.8837V12.4884H9.90698V9.51163ZM12.8837 12.4884H15.8605V15.4651H12.8837V12.4884ZM3.95349 18.4419H6.93023V21.4186H3.95349V18.4419ZM3.95349 21.4186H6.93023V24.3953H3.95349V21.4186ZM15.8605 66.0698H18.8372V69.0465H15.8605V66.0698ZM3.95349 54.1628H6.93023V57.1395H3.95349V54.1628ZM12.8837 66.0698H15.8605V69.0465H12.8837V66.0698ZM15.8605 69.0465H18.8372V72.0233H15.8605V69.0465ZM12.8837 15.4651H15.8605V18.4419H12.8837V15.4651ZM15.8605 12.4884H18.8372V15.4651H15.8605V12.4884ZM12.8837 18.4419H15.8605V21.4186H12.8837V18.4419ZM60.5116 6.53488H63.4884V9.51163H60.5116V6.53488ZM45.6279 6.53488H48.6047V9.51163H45.6279V6.53488ZM39.6744 3.55814H42.6512V6.53488H39.6744V3.55814ZM33.7209 9.51163H36.6977V12.4884H33.7209V9.51163ZM36.6977 54.1628H39.6744V57.1395H36.6977V54.1628ZM3.95349 57.1395H6.93023V60.1163H3.95349V57.1395ZM0.976744 54.1628H3.95349V57.1395H0.976744V54.1628ZM3.95349 60.1163H6.93023V63.093H3.95349V60.1163ZM6.93023 63.093H9.90698V66.0698H6.93023V63.093ZM9.90698 66.0698H12.8837V69.0465H9.90698V66.0698ZM21.814 63.093H24.7907V66.0698H21.814V63.093ZM12.8837 54.1628H15.8605V57.1395H12.8837V54.1628ZM24.7907 0.581398H27.7674V3.55814H24.7907V0.581398ZM51.5814 63.093H54.5581V66.0698H51.5814V63.093ZM48.6047 69.0465H51.5814V72.0233H48.6047V69.0465ZM21.814 72.0233H24.7907V75H21.814V72.0233ZM24.7907 72.0233H27.7674V75H24.7907V72.0233ZM27.7674 72.0233H30.7442V75H27.7674V72.0233ZM30.7442 72.0233H33.7209V75H30.7442V72.0233ZM33.7209 72.0233H36.6977V75H33.7209V72.0233ZM36.6977 72.0233H39.6744V75H36.6977V72.0233ZM39.6744 72.0233H42.6512V75H39.6744V72.0233ZM42.6512 72.0233H45.6279V75H42.6512V72.0233ZM36.6977 12.4884H39.6744V15.4651H36.6977V12.4884ZM54.5581 63.093H57.5349V66.0698H54.5581V63.093ZM54.5581 66.0698H57.5349V69.0465H54.5581V66.0698ZM57.5349 63.093H60.5116V66.0698H57.5349V63.093ZM57.5349 60.1163H60.5116V63.093H57.5349V60.1163ZM60.5116 60.1163H63.4884V63.093H60.5116V60.1163ZM60.5116 57.1395H63.4884V60.1163H60.5116V57.1395Z" fill="#F2C94C"/>
</svg>
